<svg width="1440" height="5051" viewBox="0 0 1440 5051" fill="none" xmlns="http://www.w3.org/2000/svg">
<rect width="1440" height="5051" fill="white"/>
<mask id="mask0_50_250" style="mask-type:alpha" maskUnits="userSpaceOnUse" x="1306" y="1072" width="134" height="383">
<rect x="1306" y="1072" width="134" height="383" fill="#C4C4C4"/>
</mask>
<g mask="url(#mask0_50_250)">
<path fill-rule="evenodd" clip-rule="evenodd" d="M1497 1455C1602.49 1455 1688 1369.49 1688 1264C1688 1158.51 1602.49 1073 1497 1073C1391.51 1073 1306 1158.51 1306 1264C1306 1369.49 1391.51 1455 1497 1455Z" fill="url(#paint0_linear_50_250)"/>
</g>
<mask id="mask1_50_250" style="mask-type:alpha" maskUnits="userSpaceOnUse" x="1286" y="3745" width="154" height="432">
<rect x="1286" y="3745" width="154" height="432" fill="#C4C4C4"/>
</mask>
<g mask="url(#mask1_50_250)">
<path fill-rule="evenodd" clip-rule="evenodd" d="M1463.5 4145C1561.53 4145 1641 4065.53 1641 3967.5C1641 3869.47 1561.53 3790 1463.5 3790C1365.47 3790 1286 3869.47 1286 3967.5C1286 4065.53 1365.47 4145 1463.5 4145Z" fill="url(#paint1_linear_50_250)"/>
<path fill-rule="evenodd" clip-rule="evenodd" d="M1347.5 3913C1381.47 3913 1409 3885.47 1409 3851.5C1409 3817.53 1381.47 3790 1347.5 3790C1313.53 3790 1286 3817.53 1286 3851.5C1286 3885.47 1313.53 3913 1347.5 3913Z" fill="url(#paint2_linear_50_250)"/>
</g>
<mask id="mask2_50_250" style="mask-type:alpha" maskUnits="userSpaceOnUse" x="0" y="725" width="242" height="288">
<rect y="725" width="242" height="288" fill="white"/>
</mask>
<g mask="url(#mask2_50_250)">
<path d="M242 869C242 789.471 177.529 725 98 725C18.471 725 -46 789.471 -46 869C-46 948.529 18.471 1013 98 1013C177.529 1013 242 948.529 242 869Z" fill="url(#paint3_linear_50_250)"/>
<path fill-rule="evenodd" clip-rule="evenodd" d="M199 1013C222.748 1013 242 993.748 242 970C242 946.252 222.748 927 199 927C175.252 927 156 946.252 156 970C156 993.748 175.252 1013 199 1013Z" fill="url(#paint4_linear_50_250)"/>
</g>
<defs>
<linearGradient id="paint0_linear_50_250" x1="1503.7" y1="1537.3" x2="1698.3" y2="1266.61" gradientUnits="userSpaceOnUse">
<stop stop-color="#FFD7A9"/>
<stop offset="1" stop-color="#FFAE70"/>
</linearGradient>
<linearGradient id="paint1_linear_50_250" x1="1486.17" y1="4228.92" x2="1726.82" y2="3980.66" gradientUnits="userSpaceOnUse">
<stop stop-color="#CD10FF"/>
<stop offset="1" stop-color="#9F06FF"/>
</linearGradient>
<linearGradient id="paint2_linear_50_250" x1="1349.66" y1="3939.5" x2="1412.32" y2="3852.34" gradientUnits="userSpaceOnUse">
<stop stop-color="#FFD7A9"/>
<stop offset="1" stop-color="#FFAE70"/>
</linearGradient>
<linearGradient id="paint3_linear_50_250" x1="116.393" y1="1081.08" x2="311.624" y2="879.674" gradientUnits="userSpaceOnUse">
<stop stop-color="#CD10FF"/>
<stop offset="1" stop-color="#9F06FF"/>
</linearGradient>
<linearGradient id="paint4_linear_50_250" x1="200.509" y1="1031.53" x2="244.318" y2="970.588" gradientUnits="userSpaceOnUse">
<stop stop-color="#FFD7A9"/>
<stop offset="1" stop-color="#FFAE70"/>
</linearGradient>
</defs>
</svg>
