<svg width="199" height="41" viewBox="0 0 199 41" fill="none" xmlns="http://www.w3.org/2000/svg">
<path d="M28.6148 33.717L2.03704 15.3837C-0.656291 13.5259 0.259264 9.65778 3.61778 8.74815L31.8652 1.08148C33.0792 0.643425 34.43 0.818043 35.4927 1.55041C36.5554 2.28279 37.1994 3.48291 37.2222 4.77333L35.5482 30.7719C35.3496 33.8578 31.3082 35.5748 28.6148 33.717Z" fill="url(#paint0_linear_1_25)"/>
<path d="M20.1852 38.243L4.52742 7.62222C3.79766 6.19394 3.92961 4.47721 4.86906 3.17723C5.80851 1.87724 7.39708 1.21316 8.98223 1.45778L38 5.9363C39.3553 6.14548 40.5277 6.99268 41.1517 8.21377C41.7757 9.43486 41.7755 10.8813 41.1511 12.1022L27.7837 38.2444C27.0519 39.6685 25.5851 40.5637 23.984 40.5634C22.3829 40.5631 20.9164 39.6673 20.1852 38.243Z" fill="url(#paint1_linear_1_25)"/>
<path d="M37.1511 5.80445L22.6859 3.57185L4.92593 8.39408L12.0148 22.2622L28.6148 33.717C28.981 33.9669 29.3839 34.1583 29.8089 34.2844L36.1141 21.9541L37.1511 5.80445Z" fill="#001A49"/>
<path d="M115.406 28.5333H110.874V13.4308H115.406V28.5333ZM113.139 6.66518C114.641 6.66531 115.858 7.88261 115.858 9.38393C115.858 10.8851 114.641 12.1026 113.139 12.1027C111.645 12.0874 110.436 10.8789 110.421 9.38393C110.421 7.88254 111.638 6.66518 113.139 6.66518Z" fill="#001A49"/>
<path d="M127.759 13.0085C129.775 13.1028 131.671 13.9973 133.026 15.4939C134.381 16.9906 135.083 18.9662 134.976 20.9822C135.083 22.9982 134.381 24.9736 133.026 26.4705C131.671 27.9673 129.775 28.8621 127.759 28.9568C126.058 29.0494 124.405 28.3729 123.258 27.114V34.575H118.727V13.4314H123.258V14.8503C124.405 13.592 126.058 12.9156 127.759 13.0085ZM126.791 17.4773C124.817 17.5106 123.239 19.1294 123.256 21.1033C123.273 23.077 124.878 24.6677 126.851 24.6677C127.834 24.712 128.789 24.3347 129.475 23.6306C130.162 22.9266 130.515 21.963 130.446 20.9822C130.397 19.0088 128.765 17.4442 126.791 17.4773Z" fill="#001A49"/>
<path d="M148.96 24C148.96 27.4741 145.939 28.9541 142.677 28.9541C139.981 29.1981 137.408 27.7735 136.184 25.3585L140.11 23.1244C140.439 24.2487 141.509 24.9899 142.677 24.9022C143.764 24.9022 144.307 24.5689 144.307 23.9659C144.307 22.3037 136.877 23.1807 136.877 17.9541C136.877 14.6622 139.655 13.0015 142.803 13.0015C145.208 12.926 147.464 14.1637 148.692 16.2326L144.827 18.317C144.481 17.5066 143.684 16.9815 142.803 16.9837C142.018 16.9837 141.535 17.28 141.535 17.8296C141.53 19.563 148.96 18.4148 148.96 24Z" fill="#001A49"/>
<path d="M165.519 13.4311V28.5333H160.988V27.1111C159.927 28.382 158.32 29.0672 156.668 28.9541C153.618 28.9541 151.021 26.7793 151.021 22.7007V13.4311H155.551V22.04C155.474 22.7686 155.721 23.4941 156.228 24.0236C156.734 24.5531 157.448 24.8328 158.179 24.7882C159.84 24.7882 160.994 23.8222 160.994 21.677V13.4311H165.519Z" fill="#001A49"/>
<path d="M191.486 19.2593V28.5333H186.956V19.6533C186.956 18.1437 186.23 17.1763 184.781 17.1763C183.27 17.1763 182.425 18.2341 182.425 20.0163V28.5333H177.893V19.6533C177.893 18.1437 177.169 17.1763 175.719 17.1763C174.209 17.1763 173.363 18.2341 173.363 20.0163V28.5333H168.833V13.4311H173.37V14.8148C174.324 13.5629 175.849 12.8806 177.418 13.003C178.995 12.9258 180.497 13.6823 181.375 14.9956C182.395 13.6225 184.05 12.8699 185.756 13.003C189.222 13.0089 191.486 15.4844 191.486 19.2593Z" fill="#001A49"/>
<path d="M195.324 13.3378C197.182 13.3378 198.687 11.8321 198.687 9.97482C198.687 8.1175 197.182 6.61185 195.324 6.61185C193.467 6.61185 191.961 8.1175 191.961 9.97482C191.961 11.8321 193.467 13.3378 195.324 13.3378Z" fill="#001A49"/>
<path d="M80.9077 13.004C82.6058 12.9227 84.2427 13.6518 85.3189 14.9678V13.4268H89.7329V27.7745C89.7329 32.8484 85.7765 34.9922 81.7603 34.9923C78.8781 35.2098 76.1151 33.8 74.6011 31.338L78.4663 29.1026C79.1052 30.3931 80.4781 31.1515 81.9107 31.0059C82.8152 31.1294 83.7277 30.8362 84.3902 30.2081C85.0526 29.5799 85.3942 28.6843 85.3189 27.7745V26.3848C84.2427 27.7009 82.6058 28.429 80.9077 28.3477C76.7637 28.2187 73.4712 24.822 73.4712 20.6758C73.4714 16.5299 76.7638 13.133 80.9077 13.004ZM60.5845 13.5733C63.5731 12.3271 67.0188 13.0051 69.312 15.2911C71.6051 17.5771 72.2939 21.0203 71.0571 24.0128C69.8204 27.0052 66.9015 28.9571 63.6636 28.9571C61.5394 28.9798 59.4952 28.1473 57.9907 26.6475C56.4864 25.1478 55.6476 23.1066 55.6636 20.9825C55.6534 17.7446 57.5961 14.8196 60.5845 13.5733ZM97.2202 13.5626C100.209 12.3164 103.654 12.9953 105.947 15.2813C108.24 17.5672 108.929 21.0096 107.693 24.002C106.456 26.9945 103.537 28.9463 100.299 28.9464C98.1769 28.969 96.1346 28.1382 94.6304 26.6407C93.1263 25.1432 92.2862 23.1049 92.2993 20.9825V20.9717C92.2892 17.7338 94.2317 14.8087 97.2202 13.5626ZM53.0982 28.5333H48.5659V6.48444H53.0982V28.5333ZM63.6099 17.5987C61.7035 17.6316 60.1799 19.1951 60.1958 21.1016C60.2119 23.0083 61.7617 24.5463 63.6685 24.5469C64.6142 24.5738 65.5281 24.2034 66.189 23.5264C66.8498 22.8495 67.1975 21.9272 67.148 20.9825H67.1421C67.0925 19.0765 65.5162 17.5661 63.6099 17.5987ZM100.244 17.586C98.3361 17.6188 96.8113 19.1831 96.8277 21.0909C96.8442 22.9985 98.3956 24.5361 100.303 24.5362C101.246 24.5613 102.158 24.1922 102.817 23.5176C103.476 22.8432 103.824 21.9244 103.778 20.9825V20.9717C103.729 19.0644 102.151 17.5534 100.244 17.586ZM83.1724 17.1895C81.8108 16.5758 80.2129 16.8519 79.1353 17.8858C78.0576 18.9198 77.716 20.5049 78.273 21.8907C78.8299 23.2763 80.1731 24.1849 81.6665 24.1856C82.629 24.2533 83.5753 23.9107 84.272 23.2432C84.9251 22.6173 85.3021 21.7599 85.3247 20.8604V20.6758C85.3858 19.1836 84.5339 17.8033 83.1724 17.1895Z" fill="#001A49"/>
<defs>
<linearGradient id="paint0_linear_1_25" x1="19.4874" y1="41.7331" x2="36.0899" y2="16.4981" gradientUnits="userSpaceOnUse">
<stop stop-color="#FFD7A9"/>
<stop offset="1" stop-color="#FFAE70"/>
</linearGradient>
<linearGradient id="paint1_linear_1_25" x1="25.2384" y1="49.8198" x2="51.7929" y2="23.5415" gradientUnits="userSpaceOnUse">
<stop stop-color="#CD10FF"/>
<stop offset="1" stop-color="#9F06FF"/>
</linearGradient>
</defs>
</svg>
